<?xml version="1.0" encoding="UTF-8" standalone="no"?>
<!-- Created with Inkscape (http://www.inkscape.org/) -->

<svg
   width="25.273937mm"
   height="24.399626mm"
   viewBox="0 0 25.273937 24.399626"
   version="1.1"
   id="svg1"
   xml:space="preserve"
   inkscape:version="1.3.2 (091e20e, 2023-11-25, custom)"
   sodipodi:docname="5_point_tree.svg"
   xmlns:inkscape="http://www.inkscape.org/namespaces/inkscape"
   xmlns:sodipodi="http://sodipodi.sourceforge.net/DTD/sodipodi-0.dtd"
   xmlns="http://www.w3.org/2000/svg"
   xmlns:svg="http://www.w3.org/2000/svg"><sodipodi:namedview
     id="namedview1"
     pagecolor="#1f1f1f"
     bordercolor="#000000"
     borderopacity="0.25"
     inkscape:showpageshadow="2"
     inkscape:pageopacity="0.0"
     inkscape:pagecheckerboard="0"
     inkscape:deskcolor="#d1d1d1"
     inkscape:document-units="mm"
     shape-rendering="auto"
     inkscape:zoom="4.7574603"
     inkscape:cx="13.557654"
     inkscape:cy="67.683171"
     inkscape:window-width="2434"
     inkscape:window-height="1417"
     inkscape:window-x="2038"
     inkscape:window-y="87"
     inkscape:window-maximized="1"
     inkscape:current-layer="layer1" /><defs
     id="defs1" /><g
     inkscape:label="Layer 1"
     inkscape:groupmode="layer"
     id="layer1"><g
       id="g6"
       transform="translate(-0.37437832,-0.29619466)"><path
         style="fill:#ffffff;stroke:#ffffff;stroke-width:0.529167;stroke-linecap:round;stroke-linejoin:round;stroke-miterlimit:3.4;paint-order:stroke fill markers"
         d="m 2.9591584,21.521173 3.146028,-3.853882 -2.634798,-3.303327 1.533687,-2.792098 2.084242,2.477495 -0.471903,-4.3651114 2.084242,-0.747181 1.179761,5.1516174 3.1853496,-4.5617374 2.43817,1.8482904 -2.43817,4.129159 4.79769,-0.511229 -0.275278,2.556146 -4.089834,0.511229 3.106701,1.25841 -1.612337,2.516821 -4.286461,-1.140434 -2.7527726,3.735904 z"
         id="path1" /><path
         style="fill:#ffffff;stroke:#ffffff;stroke-width:0.529167;stroke-linecap:round;stroke-linejoin:round;stroke-miterlimit:3.4;paint-order:stroke fill markers"
         d="m 0.67829135,4.9258854 c 0,0.5898798 -0.03933,7.5897886 -0.03933,7.5897886 C 1.4817034,11.307038 2.4515234,10.134711 4.0209394,9.1336956 Z"
         id="path2"
         sodipodi:nodetypes="cccc" /><path
         style="fill:#ffffff;stroke:#ffffff;stroke-width:0.529167;stroke-linecap:round;stroke-linejoin:round;stroke-miterlimit:3.4;paint-order:stroke fill markers"
         d="M 1.8667734,3.6972584 C 4.4522144,1.7483197 7.7717844,0.42232564 10.986297,0.67513714 L 10.80075,7.0351402 C 8.1992074,6.9765062 6.7384774,7.8187478 5.1613764,8.3078635 Z"
         id="path3"
         sodipodi:nodetypes="ccccc" /><path
         style="fill:#ffffff;stroke:#ffffff;stroke-width:0.529167;stroke-linecap:round;stroke-linejoin:round;stroke-miterlimit:3.4;paint-order:stroke fill markers"
         d="m 13.105092,0.56077454 -0.82583,6.72463036 c 2.038959,0.6649526 3.924679,1.8279327 5.54487,3.8538821 L 23.840906,8.4258395 C 22.058106,4.1579939 18.661304,1.3696557 13.105092,0.56077454 Z"
         id="path4"
         sodipodi:nodetypes="ccccc" /><path
         style="fill:#ffffff;stroke:#ffffff;stroke-width:0.529167;stroke-linecap:round;stroke-linejoin:round;stroke-miterlimit:3.4;paint-order:stroke fill markers"
         d="m 18.571313,12.869601 c 0.863953,1.926674 0.891203,3.667413 0.825833,5.38757 l 5.50554,0.511229 c 0.59612,-2.752773 0.93486,-5.46622 -0.78651,-8.454945 z"
         id="path5"
         sodipodi:nodetypes="ccccc" /><path
         style="fill:#ffffff;stroke:#ffffff;stroke-width:0.529167;stroke-linecap:round;stroke-linejoin:round;stroke-miterlimit:3.4;paint-order:stroke fill markers"
         d="m 19.043216,19.948159 5.34824,0.471904 c -0.22127,1.411939 -0.6188,2.664675 -1.61233,3.971857 h -5.702177 c 0.906286,-1.380908 1.584121,-2.853197 1.966267,-4.443761 z"
         id="path6"
         sodipodi:nodetypes="ccccc" /></g></g></svg>
